<?xml version="1.0" standalone="no"?>
<!DOCTYPE svg PUBLIC "-//W3C//DTD SVG 20010904//EN"
 "http://www.w3.org/TR/2001/REC-SVG-20010904/DTD/svg10.dtd">
<svg version="1.0" xmlns="http://www.w3.org/2000/svg"
 width="431.000000pt" height="431.000000pt" viewBox="0 0 431.000000 431.000000"
 preserveAspectRatio="xMidYMid meet">
<metadata>
Created by potrace 1.11, written by Peter Selinger 2001-2013
</metadata>
<g transform="translate(0.000000,431.000000) scale(0.100000,-0.100000)"
fill="#000000" stroke="none">
<path d="M1301 3946 c-40 -41 -51 -58 -51 -84 0 -35 -9 -38 -59 -21 -32 11
-35 10 -87 -42 -44 -44 -54 -59 -54 -87 0 -26 -4 -33 -14 -29 -8 3 -30 9 -50
12 -32 7 -39 3 -86 -41 -42 -42 -50 -55 -50 -86 l0 -37 -47 14 -48 15 -52 -52
-53 -52 0 -134 0 -134 -27 7 c-16 3 -37 8 -48 11 -14 3 -35 -10 -72 -46 l-53
-51 0 -899 0 -899 52 -15 c29 -8 74 -20 100 -26 l47 -12 3 -101 3 -102 95 -26
95 -25 3 -101 3 -100 192 -52 c106 -28 196 -51 200 -51 4 0 30 22 57 50 41 40
50 56 50 84 l0 34 49 -13 49 -13 51 52 c40 41 51 59 51 84 0 35 6 37 62 22
l37 -11 3 -101 3 -102 98 -25 97 -25 0 -101 0 -101 43 -11 c23 -6 111 -30 196
-53 l154 -41 30 28 c62 57 76 78 77 111 0 30 2 32 28 26 15 -4 37 -10 48 -15
32 -11 121 83 126 133 l3 35 48 -14 47 -14 0 -99 0 -99 43 -11 c23 -7 68 -19
99 -27 l57 -16 3 -101 3 -101 65 -17 c36 -10 124 -34 195 -53 l130 -34 53 52
c42 42 52 58 52 85 0 31 2 34 25 28 14 -3 36 -9 49 -12 19 -5 34 4 75 46 41
42 51 58 51 86 0 19 1 34 3 34 1 0 23 -7 48 -14 l46 -14 52 52 51 52 0 900 0
900 -97 25 -98 25 -3 202 -2 201 -43 11 c-23 6 -68 18 -99 27 l-58 16 0 101 0
101 -100 25 -100 24 0 102 0 102 -47 11 c-27 7 -72 18 -100 27 l-53 15 0 99 0
99 -52 15 c-29 8 -132 36 -228 61 -287 76 -1294 346 -1306 350 -6 2 -34 -20
-63 -49z"/>
</g>
</svg>
